<?xml version="1.0" encoding="utf-8"?>
<!-- Generator: Adobe Illustrator 16.0.0, SVG Export Plug-In . SVG Version: 6.00 Build 0)  -->
<!DOCTYPE svg PUBLIC "-//W3C//DTD SVG 1.1//EN" "http://www.w3.org/Graphics/SVG/1.1/DTD/svg11.dtd">
<svg version="1.1" id="Layer_1" xmlns="http://www.w3.org/2000/svg" xmlns:xlink="http://www.w3.org/1999/xlink" x="0px" y="0px"
	 width="420.394px" height="72.086px" viewBox="0 0 420.394 72.086" enable-background="new 0 0 420.394 72.086"
	 xml:space="preserve">
<g>
	<path fill="#FFFFFF" d="M218.666,57.534c-2.57-0.598-4.573-1.354-6.009-2.271l4.126-7.945c1.474,0.917,3.228,1.643,5.262,2.18
		c2.032,0.538,4.024,0.807,5.979,0.807c3.468,0,5.201-0.776,5.201-2.329c0-0.637-0.409-1.105-1.226-1.404
		c-0.817-0.299-2.122-0.587-3.916-0.867c-2.392-0.437-4.355-0.904-5.89-1.403c-1.534-0.496-2.88-1.344-4.035-2.539
		c-1.156-1.194-1.734-2.867-1.734-5.018c0-3.742,1.604-6.64,4.813-8.692c3.208-2.05,7.362-3.076,12.466-3.076
		c2.312,0,4.544,0.229,6.696,0.688c2.152,0.458,4.026,1.085,5.62,1.881l-4.006,7.946c-2.712-1.634-5.92-2.45-9.626-2.45
		c-1.754,0-3.06,0.229-3.916,0.688c-0.858,0.458-1.285,1.045-1.285,1.763c0,0.637,0.408,1.104,1.226,1.403
		c0.816,0.299,2.162,0.628,4.035,0.986c2.311,0.398,4.235,0.855,5.77,1.373c1.533,0.52,2.87,1.374,4.006,2.568
		c1.136,1.195,1.704,2.828,1.704,4.899c0,3.744-1.614,6.631-4.843,8.662s-7.354,3.047-12.376,3.047
		C223.917,58.43,221.237,58.132,218.666,57.534z"/>
	<path fill="#FFFFFF" d="M259.411,45.825c-0.08,0.558-0.119,0.916-0.119,1.074c0,1.833,0.996,2.749,2.989,2.749
		c1.076,0,2.212-0.318,3.408-0.956l1.435,7.826c-2.232,1.274-5.042,1.911-8.43,1.911c-3.349,0-6.009-0.836-7.982-2.509
		c-1.973-1.674-2.959-4.002-2.959-6.99c0-1.153,0.1-2.17,0.3-3.046l2.151-10.693h-4.783l1.734-8.483h4.724l1.673-8.423h11.361
		l-1.675,8.423h7.353l-1.673,8.483h-7.354L259.411,45.825z"/>
	<path fill="#FFFFFF" d="M303.715,44.511h-23.797c0.399,3.506,2.851,5.256,7.354,5.256c1.436,0,2.83-0.218,4.185-0.656
		c1.355-0.438,2.572-1.094,3.647-1.972l4.724,7.108c-3.786,2.788-8.39,4.183-13.812,4.183c-3.428,0-6.447-0.606-9.058-1.821
		s-4.623-2.928-6.038-5.139s-2.123-4.809-2.123-7.795c0-3.545,0.827-6.741,2.481-9.589c1.654-2.847,3.966-5.078,6.936-6.691
		c2.969-1.613,6.368-2.419,10.194-2.419c3.229,0,6.047,0.588,8.46,1.762c2.41,1.175,4.264,2.838,5.561,4.988
		c1.294,2.151,1.942,4.641,1.942,7.468C304.372,40.747,304.152,42.52,303.715,44.511z M283.267,34.504
		c-1.235,0.977-2.132,2.321-2.69,4.032h13.333c0.039-1.711-0.499-3.056-1.614-4.032c-1.116-0.975-2.592-1.464-4.424-1.464
		C286.036,33.04,284.502,33.529,283.267,34.504z"/>
	<path fill="#FFFFFF" d="M336.148,26.738c2.092,1.175,3.775,2.877,5.052,5.109c1.276,2.23,1.914,4.838,1.914,7.824
		c0,3.547-0.788,6.742-2.362,9.588c-1.575,2.85-3.707,5.089-6.396,6.722c-2.691,1.634-5.631,2.449-8.819,2.449
		c-4.704,0-8.012-1.474-9.925-4.421l-3.109,15.473h-11.359l8.788-43.968h10.763l-0.657,3.046c2.589-2.39,5.719-3.584,9.387-3.584
		C331.813,24.976,334.057,25.563,336.148,26.738z M329.482,46.78c1.435-1.673,2.151-3.843,2.151-6.511
		c0-1.913-0.548-3.425-1.644-4.541c-1.097-1.114-2.601-1.672-4.514-1.672c-2.272,0-4.126,0.836-5.561,2.508
		c-1.435,1.673-2.152,3.864-2.152,6.572c0,1.911,0.548,3.415,1.644,4.511c1.097,1.096,2.602,1.643,4.515,1.643
		C326.193,49.29,328.047,48.453,329.482,46.78z"/>
	<path fill="#FFFFFF" d="M343.711,57.414c-0.479-0.478-0.718-1.055-0.718-1.732c0-0.756,0.259-1.383,0.777-1.882
		c0.518-0.498,1.137-0.747,1.854-0.747c0.678,0,1.256,0.239,1.733,0.717c0.479,0.478,0.718,1.057,0.718,1.733
		c0,0.716-0.259,1.334-0.777,1.852c-0.518,0.518-1.136,0.777-1.853,0.777C344.767,58.132,344.189,57.893,343.711,57.414z"/>
	<path fill="#FFFFFF" d="M385.563,26.708l-6.218,31.185h-2.869l1.194-6.094c-1.514,1.991-3.397,3.545-5.649,4.659
		c-2.253,1.116-4.753,1.674-7.503,1.674c-4.066,0-7.323-1.166-9.775-3.496c-2.451-2.33-3.678-5.485-3.678-9.468
		c0-3.544,0.758-6.741,2.273-9.589c1.514-2.846,3.616-5.077,6.307-6.69c2.69-1.613,5.71-2.42,9.059-2.42
		c3.229,0,5.897,0.698,8.012,2.091c2.111,1.395,3.546,3.366,4.305,5.914l1.554-7.766H385.563z M372.619,53.412
		c2.212-1.354,3.955-3.235,5.231-5.646c1.275-2.41,1.913-5.128,1.913-8.154c0-3.306-0.967-5.875-2.9-7.707
		c-1.933-1.831-4.653-2.748-8.16-2.748c-2.791,0-5.292,0.688-7.504,2.061c-2.212,1.375-3.956,3.267-5.231,5.676
		c-1.276,2.41-1.913,5.107-1.913,8.095c0,3.307,0.965,5.875,2.899,7.706c1.933,1.833,4.653,2.748,8.162,2.748
		C367.904,55.442,370.406,54.767,372.619,53.412z"/>
	<path fill="#FFFFFF" d="M393.335,26.708h2.989l-6.219,31.185h-2.989L393.335,26.708z M395.069,18.464
		c-0.439-0.438-0.658-0.956-0.658-1.553c0-0.717,0.248-1.334,0.747-1.852c0.498-0.518,1.125-0.776,1.883-0.776
		c0.639,0,1.187,0.219,1.646,0.657c0.457,0.438,0.688,0.955,0.688,1.553c0,0.758-0.261,1.384-0.777,1.882
		c-0.519,0.499-1.156,0.747-1.914,0.747C396.045,19.121,395.507,18.902,395.069,18.464z"/>
	<path fill="#FFFFFF" d="M92.779,48.573c-2.571-0.598-4.574-1.354-6.008-2.271l4.125-7.944c1.474,0.917,3.229,1.644,5.261,2.18
		c2.033,0.538,4.025,0.808,5.979,0.808c3.468,0,5.201-0.777,5.201-2.33c0-0.637-0.409-1.105-1.225-1.404
		c-0.817-0.299-2.123-0.587-3.917-0.866c-2.392-0.438-4.355-0.905-5.889-1.403c-1.535-0.498-2.879-1.344-4.035-2.539
		c-1.157-1.195-1.734-2.867-1.734-5.018c0-3.743,1.604-6.64,4.813-8.692c3.208-2.05,7.363-3.077,12.466-3.077
		c2.311,0,4.544,0.23,6.696,0.688c2.152,0.458,4.025,1.086,5.62,1.882l-4.006,7.945c-2.711-1.632-5.918-2.45-9.625-2.45
		c-1.754,0-3.06,0.23-3.917,0.688c-0.857,0.458-1.285,1.046-1.285,1.762c0,0.638,0.408,1.105,1.225,1.404
		c0.817,0.298,2.162,0.626,4.036,0.985c2.312,0.399,4.234,0.857,5.77,1.375c1.534,0.518,2.87,1.374,4.006,2.568
		c1.136,1.195,1.704,2.828,1.704,4.898c0,3.744-1.615,6.632-4.843,8.662c-3.229,2.031-7.354,3.047-12.376,3.047
		C98.031,49.469,95.35,49.17,92.779,48.573z"/>
	<path fill="#FFFFFF" d="M151.132,17.777c2.093,1.175,3.776,2.877,5.052,5.107c1.275,2.231,1.913,4.839,1.913,7.826
		c0,3.545-0.787,6.742-2.361,9.588c-1.575,2.849-3.708,5.089-6.397,6.721c-2.69,1.634-5.63,2.449-8.819,2.449
		c-4.703,0-8.011-1.473-9.924-4.421l-3.109,15.473h-11.359l8.789-43.968h10.761l-0.657,3.047c2.59-2.39,5.719-3.585,9.387-3.585
		C146.798,16.014,149.04,16.603,151.132,17.777z M144.466,37.82c1.435-1.674,2.153-3.844,2.153-6.513
		c0-1.911-0.549-3.425-1.645-4.54c-1.097-1.114-2.601-1.672-4.514-1.672c-2.272,0-4.125,0.836-5.56,2.509
		c-1.435,1.672-2.152,3.863-2.152,6.571c0,1.912,0.547,3.415,1.644,4.51c1.096,1.096,2.601,1.644,4.514,1.644
		C141.178,40.329,143.031,39.492,144.466,37.82z"/>
	<path fill="#FFFFFF" d="M166.468,4.604h11.359l-8.849,44.326h-11.36L166.468,4.604z"/>
	<polygon fill="#FFFFFF" points="178.179,27.677 173.94,48.931 185.24,48.931 190.683,21.636 	"/>
	<path fill="#FFFFFF" d="M211.519,11.57l-12.566,6.071l-0.021,0.106h-0.198l-5.021,2.426l-1.238,6.057h4.783l-2.152,10.693
		c-0.2,0.877-0.299,1.892-0.299,3.047c0,2.986,0.986,5.316,2.959,6.989s4.633,2.509,7.981,2.509c3.388,0,6.197-0.637,8.43-1.911
		l-1.435-7.826c-1.196,0.638-2.331,0.955-3.408,0.955c-1.993,0-2.989-0.914-2.989-2.747c0-0.159,0.04-0.518,0.12-1.076l2.153-10.633
		h7.353l1.675-8.483h-7.354L211.519,11.57z"/>
	<polygon fill="#3EC7F3" points="180.816,13.685 179.022,22.646 191.578,16.672 192.176,13.685 	"/>
	<path fill="#3EC7F3" d="M61.721,11.445c-3,0.088-5.535,2.319-6.818,5.304c-1.452,3.37-3.001,6.405-6.152,8.498
		c-0.424,0.264-0.862,0.503-1.315,0.714c-3.472,1.504-6.861,1.15-10.478,0.534c-3.204-0.549-6.456,0.361-8.164,2.829
		c-1.277,1.847-2.332,4.436-0.5,8.005c1.382,2.689,4.877,4.321,7.796,3.822c1.793-0.307,3.27-1.251,4.314-2.555
		c1.27-1.593,1.838-3.231,2.807-4.824c1.489-2.453,3.547-4.372,6.204-5.731c2.589-1.487,5.32-2.171,8.19-2.085
		c1.862,0.055,3.547,0.473,5.572,0.273c1.664-0.165,3.259-0.891,4.493-2.228c2.006-2.177,2.543-5.996,1.039-8.617
		C66.71,11.902,63.967,11.38,61.721,11.445C58.72,11.533,63.967,11.38,61.721,11.445z"/>
	<path fill="#FFFFFF" d="M55.433,33.252c-3.001,0.088-5.536,2.32-6.819,5.305c-1.452,3.369-3.001,6.405-6.152,8.498
		c-0.424,0.264-0.862,0.504-1.316,0.714c-3.472,1.504-6.86,1.15-10.477,0.534c-3.204-0.55-6.456,0.362-8.165,2.829
		c-1.277,1.848-2.332,4.436-0.5,8.006c1.382,2.689,4.877,4.32,7.796,3.82c1.793-0.306,3.27-1.249,4.314-2.553
		c1.27-1.593,1.838-3.231,2.807-4.824c1.489-2.454,3.547-4.373,6.204-5.731c2.589-1.488,5.32-2.173,8.189-2.087
		c1.863,0.056,3.547,0.473,5.572,0.273c1.664-0.164,3.259-0.891,4.493-2.228c2.006-2.178,2.543-5.996,1.039-8.617
		C60.422,33.709,57.678,33.187,55.433,33.252C52.432,33.34,57.678,33.187,55.433,33.252z"/>
</g>
</svg>
